<svg width="175" height="174" viewBox="0 0 175 174" fill="none" xmlns="http://www.w3.org/2000/svg">
<path fill-rule="evenodd" clip-rule="evenodd" d="M7.87039 123.522H81.8312C84.5011 123.522 86.2543 125.203 85.7491 127.276L83.689 135.718C83.1834 137.789 80.6105 139.468 77.9414 139.468H4.01016C1.3415 139.468 -0.415942 137.789 0.0853929 135.718L2.12834 127.276C2.62967 125.203 5.20088 123.522 7.87039 123.522Z" fill="white"/>
<path fill-rule="evenodd" clip-rule="evenodd" d="M67.2838 109.629H11.4094C8.4959 109.629 6.5919 107.564 7.14835 105.056L12.333 81.6887C12.7976 79.5968 15.2802 77.9245 17.886 77.9245H67.8424C70.4477 77.9245 72.5594 79.5968 72.5594 81.6887V105.056C72.559 107.564 70.1973 109.629 67.2838 109.629Z" fill="white"/>
<path fill-rule="evenodd" clip-rule="evenodd" d="M16.3781 169.076C16.2191 169.389 16.1426 169.858 16.1426 170.483C16.1426 172.828 17.6329 174 20.6132 174H44.8487C48.2983 174 50.3378 172.359 50.9661 169.076L63.672 109.746H126.731C128.453 109.746 129.825 109.199 130.848 108.105C131.842 107.057 132.533 105.761 132.848 104.353L137.319 83.2477C137.476 82.9368 137.554 82.4678 137.555 81.8408C137.555 79.3404 136.064 78.0898 133.084 78.0889H70.4954L80.3779 31.8922H162.26C164.299 31.8922 165.906 31.3452 167.083 30.2509C168.199 29.2597 168.979 27.949 169.319 26.4986L173.79 5.86251C173.79 5.54645 173.829 5.23123 173.907 4.92454C173.984 4.61784 174.024 4.30306 174.025 3.98657C174.025 1.3307 172.456 0.00212981 169.319 0H57.5545C54.2601 0 52.1428 1.87636 51.2016 5.62823L16.3781 169.076Z" fill="white"/>
</svg>
