<svg width="348" height="348" viewBox="0 0 348 348" fill="none" xmlns="http://www.w3.org/2000/svg">
<path fill-rule="evenodd" clip-rule="evenodd" d="M263.231 20.8205H84.7692C49.4513 20.8205 20.8205 49.4513 20.8205 84.7692V263.231C20.8205 298.549 49.4513 327.179 84.7692 327.179H263.231C298.549 327.179 327.18 298.549 327.18 263.231V84.7692C327.18 49.4513 298.549 20.8205 263.231 20.8205ZM84.7692 0H263.231C310.048 0 348 37.9525 348 84.7692V263.231C348 310.047 310.048 348 263.231 348H84.7692C37.9525 348 0 310.047 0 263.231V84.7692C0 37.9525 37.9525 0 84.7692 0Z" fill="white"/>
</svg>
