<svg width="33" height="33" viewBox="0 0 33 33" fill="none" xmlns="http://www.w3.org/2000/svg">
  <g clip-path="url(#clip0_1429_1708)">
    <path d="M24.3397 1.17627H8.62542C4.50301 1.17627 1.16113 4.51814 1.16113 8.64055V24.3548C1.16113 28.4773 4.50301 31.8191 8.62542 31.8191H24.3397C28.4621 31.8191 31.804 28.4773 31.804 24.3548V8.64055C31.804 4.51814 28.4621 1.17627 24.3397 1.17627Z" stroke="#212529" stroke-width="2.5"/>
    <path fill-rule="evenodd" clip-rule="evenodd" d="M9.23137 19.8998H16.0298C16.2752 19.8998 16.4363 20.0549 16.3899 20.2461L16.2005 21.0247C16.1541 21.2157 15.9176 21.3705 15.6722 21.3705H8.87654C8.63124 21.3705 8.4697 21.2157 8.51578 21.0247L8.70357 20.2461C8.74965 20.0549 8.98599 19.8998 9.23137 19.8998Z" fill="#212529"/>
    <path fill-rule="evenodd" clip-rule="evenodd" d="M14.6888 18.6185H9.55278C9.28497 18.6185 9.10995 18.4281 9.1611 18.1968L9.63768 16.0417C9.68038 15.8487 9.90859 15.6945 10.1481 15.6945H14.7401C14.9796 15.6945 15.1737 15.8487 15.1737 16.0417V18.1968C15.1737 18.4281 14.9566 18.6185 14.6888 18.6185Z" fill="#212529"/>
    <path fill-rule="evenodd" clip-rule="evenodd" d="M10.0113 24.1013C9.99666 24.1302 9.98962 24.1734 9.98962 24.2311C9.98962 24.4473 10.1266 24.5554 10.4006 24.5554H12.6282C12.9453 24.5554 13.1328 24.4041 13.1905 24.1013L14.3584 18.6294H20.1546C20.3129 18.6294 20.439 18.5789 20.533 18.478C20.6244 18.3814 20.688 18.2618 20.7169 18.132L21.1278 16.1855C21.1422 16.1568 21.1494 16.1136 21.1495 16.0557C21.1495 15.8251 21.0125 15.7098 20.7386 15.7097H14.9856L15.894 11.4491H23.4204C23.6078 11.4491 23.7555 11.3986 23.8637 11.2977C23.9662 11.2063 24.038 11.0854 24.0692 10.9516L24.4801 9.04838C24.4801 9.01923 24.4837 8.99016 24.4909 8.96187C24.498 8.93359 24.5016 8.90455 24.5017 8.87537C24.5017 8.63042 24.3576 8.50789 24.0692 8.50769H13.7961C13.4933 8.50769 13.2987 8.68074 13.2122 9.02677L10.0113 24.1013Z" fill="#212529"/>
  </g>
  <defs>
    <clipPath id="clip0_1429_1708">
      <rect width="33" height="33" fill="#212529"/>
    </clipPath>
  </defs>
</svg>
