<svg width="512" height="512" viewBox="0 0 512 512" fill="none" xmlns="http://www.w3.org/2000/svg">
<path d="M0 112C0 50.1441 50.1441 0 112 0H400C461.856 0 512 50.1441 512 112V400C512 461.856 461.856 512 400 512H112C50.1441 512 0 461.856 0 400V112Z" fill="url(#paint0_linear_4886_100923)"/>
<path fill-rule="evenodd" clip-rule="evenodd" d="M132.303 313.091H247.92C252.094 313.091 254.834 315.718 254.044 318.959L250.824 332.156C250.034 335.393 246.012 338.018 241.839 338.018H126.269C122.097 338.018 119.35 335.393 120.133 332.156L123.327 318.959C124.111 315.718 128.13 313.091 132.303 313.091Z" fill="white"/>
<path fill-rule="evenodd" clip-rule="evenodd" d="M225.116 291.373H137.77C133.216 291.373 130.239 288.146 131.109 284.225L139.214 247.697C139.94 244.427 143.821 241.812 147.895 241.812H225.989C230.062 241.812 233.363 244.427 233.363 247.697V284.225C233.362 288.146 229.67 291.373 225.116 291.373Z" fill="white"/>
<path fill-rule="evenodd" clip-rule="evenodd" d="M145.568 384.302C145.319 384.792 145.2 385.525 145.2 386.502C145.2 390.168 147.529 392 152.188 392H190.073C195.465 392 198.653 389.434 199.636 384.302L219.497 291.557H318.071C320.762 291.557 322.908 290.702 324.506 288.991C326.06 287.354 327.141 285.327 327.633 283.126L334.622 250.134C334.866 249.648 334.989 248.915 334.99 247.935C334.99 244.026 332.66 242.071 328.001 242.07H230.164L245.612 169.854H373.609C376.796 169.854 379.309 168.999 381.148 167.289C382.892 165.739 384.113 163.69 384.644 161.423L391.632 129.164C391.632 128.67 391.693 128.178 391.815 127.698C391.936 127.219 391.998 126.727 392 126.232C392 122.08 389.548 120.003 384.644 120H209.934C204.785 120 201.475 122.933 200.004 128.798L145.568 384.302Z" fill="white"/>
<defs>
<linearGradient id="paint0_linear_4886_100923" x1="256" y1="0" x2="256" y2="512" gradientUnits="userSpaceOnUse">
<stop stop-color="#374151"/>
<stop offset="1" stop-color="#111827"/>
</linearGradient>
</defs>
</svg>
