<svg version="1" xmlns="http://www.w3.org/2000/svg" width="933.333" height="933.333" viewBox="0 0 700.000000 700.000000"><path d="M132 .7c-1.9.2-8 1.3-13.5 2.4-44.6 8.9-83.4 38.8-103 79.4-6 12.3-9.8 22.9-11.9 33.1-.8 3.8-1.8 8.5-2.2 10.4C.9 127.9.5 227.6.3 347.5c-.2 213.3-.2 218.2 1.8 229C10.7 624.7 40.2 664 83.5 685c12 5.8 23.1 9.5 37.9 12.6l11.1 2.3 219-.2c120.5-.2 220.4-.6 222-1 1.7-.4 5.5-1.2 8.5-1.8 14.7-2.7 38.1-12.4 51.1-21.1 19.7-13.2 35.7-30.3 47.3-50.3 5.4-9.4 12.2-25.7 14.1-33.7.7-3.1 1.5-6 1.8-6.5.3-.4.8-2.8 1.1-5.3.4-2.5 1.1-7.2 1.6-10.5.5-3.5.8-95.9.6-223.5l-.2-217.5-2.1-9.5c-9.1-40.9-31.6-73.7-65.2-95.5-11.9-7.7-31.7-16.2-44.1-19.1C570.9.5 582.5.6 353.5.5 233.6.4 133.9.5 132 .7zm438 41.2c46.5 8.9 79.8 42.3 88.2 88.6 1 5.5 1.2 51.9 1.2 218 0 188.3-.2 220-1.9 224.7-.2.7-.7 2.6-.9 4.2-1.5 8.9-8.8 25.3-15.9 35.5-16.5 24-44.5 41.5-73.2 45.7-2.7.4-99.9.8-216 .9-229.5.1-219.2.4-237.5-5.6-31.5-10.2-58.3-37-68.1-67.9-5.7-18-5.5-9.6-5.4-237.5.1-116.1.5-213.3.9-216 7.1-47.7 46.1-85.9 92.9-91.1 2.9-.3 5.3-.7 5.4-.8.1-.1 95.5-.1 212-.1 164.9.1 213.2.4 218.3 1.4z"/><path d="M285.4 176c-2.9 1.1-5.8 5-7.2 9.6-1 3.4-7.6 33.6-8.8 40.4-.4 2.1-1.1 5.4-2 9.5-.1.5-1.4 6.8-2.9 14-1.5 7.1-2.8 13.7-3 14.5-.2.8-1.3 6-2.5 11.5s-2.4 10.9-2.6 12c-.3 1.1-.7 2.9-.9 4.1-4.5 21.4-8.6 39.7-8.9 40.2-.2.4-8.8.7-19 .7-19.9-.1-23.3.5-26 4.7-1.2 1.9-10.4 40.5-11.9 50.5-.6 3.8 1.3 6.8 5 8 1.6.5 10.8.9 20.6.8 9.7-.1 17.7.1 17.7.3 0 2.4-5.4 25.9-6.1 26.7-.5.5-9.2 1-20.2 1-25.3.1-25.6.3-29.3 15.2-2.9 11.7-2.9 12.5-.3 14.9 1.9 1.7 4 1.9 21.8 2.1 10.8 0 20.1.1 20.7.2.8.1.8 1.5-.1 4.9-.7 2.6-2.7 11.7-4.5 20.2-1.7 8.5-3.3 16.2-3.5 17-4.6 19.8-4.7 21.6-2.1 24.7l2.3 2.6h28.4c32.8 0 33.6-.2 36.3-7.5.8-2.4 4.1-16.4 7.2-31.2 3.1-14.9 5.9-27.9 6.4-29 .7-2 1.4-2.1 22.1-2 29.2.2 29.7 0 33.3-15.6 2.6-11 2.7-11.9.5-14.1-2.3-2.3-.1-2.1-26.1-2.3-11.9-.1-21.9-.4-22.2-.6-.6-.6 4.8-25.8 5.8-26.7.3-.4 29.8-.7 65.4-.7 60-.1 65-.2 67.5-1.9 3.1-2 5.1-5.6 6.2-11.2.5-2.2.9-4.5 1.1-5 .5-2.1 3.6-16.5 5-23.3.3-1.5 1.1-5.2 1.8-8.3 1.5-6.7 1.2-9.8-1.4-12.3-1.9-1.9-4-2-67-2h-65.1l.6-3.6c.3-1.9 2.2-10.7 4.1-19.5 1.9-8.8 6.1-28.2 9.2-43l5.8-27 84.5-.1c79.7 0 84.7-.2 87.6-1.9 1.7-1 3.8-3.1 4.8-4.8 2-3.4 11.5-45.4 11.5-51 0-1-1.1-2.9-2.5-4.2l-2.4-2.5-116.3.1c-64 0-117.3.4-118.4.9z"/></svg>