<svg width="34" height="34" viewBox="0 0 34 34" fill="none" xmlns="http://www.w3.org/2000/svg">
<path d="M0 8C0 3.58172 3.58172 0 8 0H26C30.4183 0 34 3.58172 34 8V26C34 30.4183 30.4183 34 26 34H8C3.58172 34 0 30.4183 0 26V8Z" fill="#F9FAFB"/>
<g clip-path="url(#clip0_1193_102)">
<path fill-rule="evenodd" clip-rule="evenodd" d="M16.9879 26.0395C16.867 26.0395 16.7581 26.0516 16.6493 26.0516H16.5405C16.4677 26.0537 16.3949 26.0496 16.3228 26.0395C16.2865 26.0395 16.2381 26.0273 16.2019 26.0273C16.1414 26.0273 16.0809 26.0151 16.0205 26.0151C15.9721 26.0151 15.9358 26.0029 15.8874 26.0029C15.827 25.9907 15.7786 25.9907 15.7302 25.9786C15.6819 25.9664 15.6456 25.9664 15.6093 25.9542L15.4642 25.9177C15.4279 25.9055 15.3795 25.8933 15.3433 25.8812C15.2949 25.869 15.2465 25.8568 15.2102 25.8446C15.174 25.8325 15.1377 25.8203 15.0893 25.8081C15.0471 25.7972 15.0064 25.7808 14.9684 25.7594C14.93 25.7483 14.8934 25.7319 14.8595 25.7107C14.8233 25.6985 14.7749 25.6742 14.7386 25.662C14.7052 25.6482 14.6728 25.6319 14.6419 25.6133C14.6056 25.589 14.5693 25.5768 14.533 25.5524C14.4982 25.5366 14.4657 25.5161 14.4363 25.4915C14.4027 25.4667 14.3661 25.4463 14.3274 25.4307C14.2912 25.4063 14.267 25.3941 14.2307 25.3698C14.1944 25.3454 14.1702 25.3211 14.134 25.2967C14.1087 25.2725 14.0802 25.2521 14.0493 25.2359C14.0141 25.211 13.9817 25.1824 13.9526 25.1506L13.88 25.0776L13.7954 24.9923L13.7228 24.9193C13.6986 24.8949 13.6744 24.8584 13.6502 24.8341C13.6235 24.8111 13.6028 24.7817 13.5898 24.7488C13.5656 24.7123 13.5414 24.688 13.5172 24.6514C13.493 24.6271 13.4809 24.5906 13.4567 24.5662L13.3842 24.4566C13.36 24.4323 13.3479 24.3957 13.3237 24.3714C13.2995 24.3349 13.2753 24.2862 13.2512 24.2496C13.2391 24.2253 13.227 23.2025 13.2028 23.1782C13.1786 23.1417 13.1665 23.093 13.1423 23.0564C13.1302 23.0199 13.106 22.9955 13.094 22.959C13.0819 22.9225 13.0577 22.886 13.0456 22.8494C13.0335 22.8129 13.0093 22.7764 12.9972 22.7399C12.9851 22.7033 12.9609 22.6546 12.9488 22.6059C12.9367 22.5694 12.9247 22.5451 12.9126 22.5085C12.891 22.4618 12.8748 22.4128 12.8642 22.3624L12.8279 22.2772C12.8037 22.2041 12.7795 22.1189 12.7554 22.0458L12.6828 21.7902V21.7658C12.6586 21.6928 12.6465 21.6197 12.6223 21.5466L12.5981 21.4371L12.5619 21.291L12.5377 21.2057L12.5014 21.0353L12.4772 20.9379L12.4409 20.7674L12.4288 20.6822L12.3926 20.4995L12.3684 20.39L12.3442 20.2439L12.32 20.1221L12.2958 19.9395L12.2837 19.8542C12.2595 19.6838 12.2233 19.5133 12.1991 19.3429L12.1749 19.1968L12.1507 19.0506L12.1265 18.9167L12.1023 18.7584V18.7341L12.066 18.5149L12.054 18.454L12.0177 18.2714L11.9935 18.1497L11.9693 18.0157L11.9451 17.8574L11.9209 17.7357L11.8967 17.6018L11.8605 17.4313L11.8363 17.3095L11.8 17.1391L11.7758 17.0295L11.7395 16.8834L11.7033 16.7373L11.6791 16.6521C11.667 16.5912 11.6428 16.5303 11.6307 16.4694C11.6186 16.4207 11.5944 16.3598 11.5823 16.3111L11.5581 16.2137C11.5354 16.1268 11.5071 16.0414 11.4735 15.958V15.9459L11.4493 15.885C11.4251 15.8241 11.4009 15.7632 11.3767 15.6902L11.3405 15.6049C11.3163 15.5562 11.3042 15.4954 11.28 15.4467C11.2679 15.4101 11.2437 15.3736 11.2316 15.3371C11.2074 15.2884 11.1953 15.2519 11.1712 15.2032C11.1557 15.1642 11.1354 15.1274 11.1107 15.0936C11.0865 15.0449 11.0744 15.0083 11.0502 14.9596C11.026 14.9231 11.014 14.8866 10.9898 14.8501C10.9656 14.8014 10.9414 14.7648 10.9172 14.7161C10.893 14.6796 10.8809 14.6431 10.8567 14.6066C10.8299 14.5676 10.8057 14.527 10.7842 14.4848L10.7116 14.3752L10.6391 14.2656C10.6178 14.231 10.5936 14.1984 10.5665 14.1682C10.5423 14.1317 10.506 14.0952 10.4819 14.0586C10.4572 14.0233 10.4288 13.9906 10.3972 13.9612C10.373 13.9247 10.3367 13.8882 10.3126 13.8517C10.2884 13.8151 10.2521 13.7908 10.2279 13.7543C10.1988 13.7188 10.1664 13.6862 10.1312 13.6569C10.1048 13.6223 10.072 13.5933 10.0344 13.5716C9.99814 13.5351 9.96186 13.5107 9.92558 13.4742C9.8893 13.4499 9.86512 13.4133 9.82884 13.389C9.79256 13.3646 9.75628 13.3281 9.72 13.3038C9.68372 13.2794 9.64744 13.2429 9.61116 13.2185C9.57289 13.1873 9.53249 13.1588 9.49023 13.1333L9.3814 13.0602C9.34512 13.0359 9.29674 13.0115 9.26047 12.9872C9.2218 12.9602 9.1814 12.9358 9.13954 12.9141C9.09116 12.8898 9.05488 12.8654 9.00651 12.8411C8.96877 12.816 8.92816 12.7956 8.88558 12.7802L8.74047 12.7072C8.70419 12.6828 8.65581 12.6706 8.61954 12.6463C8.56594 12.6187 8.50903 12.5983 8.45023 12.5854C8.40186 12.5732 8.36558 12.5489 8.31721 12.5367L8.29302 12.5245C7.98351 12.4219 7.66862 12.3365 7.34977 12.2688C4.32651 11.6966 5.01581 9.6876 8.08744 6.97244C3.87907 8.56745 3.11721 12.2688 6.2614 14.57L4 16.8347L16.9879 29.9113L29.9758 16.8347L27.7023 14.5457C30.8586 12.2445 30.5926 8.67703 26.3721 7.08202C29.4558 9.79718 29.6372 11.6844 26.614 12.2567C26.2925 12.3129 25.9768 12.3985 25.6707 12.5123L25.6465 12.5245C25.5981 12.5367 25.5619 12.561 25.5135 12.5732C25.453 12.5976 25.4047 12.6098 25.3442 12.6341C25.3016 12.6494 25.261 12.6699 25.2233 12.695L25.0781 12.768C25.0391 12.7908 24.9987 12.8111 24.9572 12.8289C24.9088 12.8533 24.8726 12.8776 24.8242 12.902C24.7879 12.9263 24.7395 12.9507 24.7033 12.975C24.6614 12.9967 24.621 13.0211 24.5823 13.0481L24.4735 13.1211C24.4372 13.1455 24.4009 13.1698 24.3526 13.2064C24.3163 13.2307 24.28 13.2672 24.2437 13.2916C24.2074 13.3159 24.1712 13.3525 24.1349 13.3768C24.0986 13.4012 24.0744 13.4377 24.0381 13.462C24.0019 13.4986 23.9656 13.5229 23.9293 13.5594C23.893 13.5838 23.8688 13.6203 23.8326 13.6447C23.8034 13.6801 23.771 13.7127 23.7358 13.7421C23.7116 13.7786 23.6754 13.803 23.6512 13.8395C23.6192 13.873 23.5909 13.9097 23.5665 13.9491C23.5418 13.9845 23.5134 14.0171 23.4819 14.0465C23.4577 14.083 23.4214 14.1195 23.3972 14.1561C23.3759 14.1907 23.3517 14.2233 23.3247 14.2535L23.2521 14.363L23.1795 14.4726C23.1527 14.5115 23.1285 14.5522 23.107 14.5944C23.0828 14.6309 23.0707 14.6674 23.0465 14.704C23.0223 14.7527 22.9981 14.7892 22.974 14.8379C22.9498 14.8744 22.9377 14.9109 22.9135 14.9475C22.8911 14.991 22.8709 15.0357 22.853 15.0814C22.8288 15.1179 22.8167 15.1545 22.7926 15.191C22.7684 15.2397 22.7563 15.2762 22.7321 15.3249C22.72 15.3614 22.6958 15.398 22.6837 15.4345C22.6583 15.4851 22.6381 15.5381 22.6233 15.5928L22.587 15.678C22.5628 15.7389 22.5386 15.7998 22.5144 15.8728L22.4902 15.9337V15.9459C22.466 16.0311 22.4298 16.1163 22.4056 16.2016L22.3814 16.299C22.3693 16.3477 22.3451 16.4085 22.333 16.4572C22.3209 16.5181 22.2967 16.579 22.2847 16.6399L22.2605 16.7251L22.2242 16.8712L22.1879 17.0173L22.1637 17.1269L22.1274 17.2974L22.1033 17.4191L22.067 17.5896L22.0428 17.7235L22.0186 17.8453L21.9944 18.0035L21.9702 18.1375L21.946 18.2592L21.9098 18.4419L21.8977 18.5027L21.8614 18.7219V18.7463L21.8372 18.9045L21.813 19.0385L21.7888 19.1846L21.7647 19.3307C21.7405 19.5011 21.7042 19.6716 21.68 19.8421L21.6679 19.9273L21.6437 20.1099L21.6195 20.2317L21.5954 20.3778L21.5712 20.4874L21.5349 20.67L21.5228 20.7552L21.4865 20.9257L21.4623 21.0231L21.4261 21.1936L21.4019 21.2788L21.3656 21.4249L21.3414 21.5345C21.3172 21.6075 21.3051 21.6806 21.2809 21.7536V21.778L21.2084 22.0337C21.1842 22.1067 21.16 22.192 21.1358 22.265L21.0995 22.3502C21.0874 22.3989 21.0633 22.4476 21.0512 22.4963C21.0391 22.5329 21.027 22.5572 21.0149 22.5938C21.0028 22.6425 20.9786 22.679 20.9665 22.7277C20.9544 22.7642 20.9302 22.8007 20.9181 22.8373C20.906 22.8738 20.8819 22.9103 20.8698 22.9468C20.8577 22.9834 20.8335 23.0077 20.8214 23.0443C20.7972 23.0808 20.7851 23.1295 20.7609 23.166C20.7491 23.193 20.7328 23.2178 20.7126 23.2391C20.6884 23.2756 20.6642 23.3243 20.64 23.3608C20.6239 23.392 20.6036 23.4207 20.5795 23.446L20.507 23.5556C20.4828 23.58 20.4707 24.6149 20.4465 24.6393C20.4223 24.6758 20.3981 24.7001 20.374 24.7367C20.3472 24.7597 20.3264 24.789 20.3135 24.8219C20.2923 24.8528 20.268 24.8814 20.2409 24.9071L20.1684 24.9802L20.0837 25.0654L20.0112 25.1385C19.976 25.1633 19.9436 25.1919 19.9144 25.2237C19.8916 25.2506 19.8624 25.2715 19.8298 25.2846C19.7935 25.3089 19.7693 25.3333 19.733 25.3576C19.7056 25.3848 19.6726 25.4056 19.6363 25.4185C19.6027 25.4433 19.5661 25.4638 19.5274 25.4794C19.4912 25.5037 19.467 25.5159 19.4307 25.5403C19.3944 25.5646 19.3581 25.5768 19.3219 25.6011C19.2856 25.6133 19.2614 25.6377 19.2251 25.6498C19.187 25.6713 19.1464 25.6876 19.1042 25.6985C19.0679 25.7107 19.0316 25.7351 18.9954 25.7472C18.9531 25.7582 18.9125 25.7745 18.8744 25.7959C18.8381 25.8081 18.8019 25.8203 18.7535 25.8325C18.7051 25.8446 18.6688 25.8568 18.6205 25.869C18.5842 25.8812 18.5358 25.8933 18.4995 25.9055L18.3544 25.942C18.3181 25.9542 18.2698 25.9542 18.2335 25.9664C18.1851 25.9786 18.1247 25.9786 18.0763 25.9907C18.0279 25.9907 17.9916 26.0029 17.9433 26.0029C17.8834 26.013 17.8226 26.0172 17.7619 26.0151C17.7256 26.0151 17.6893 26.0273 17.6409 26.0273C17.5681 26.0252 17.4953 26.0293 17.4233 26.0395H17.3144C17.2059 26.0516 17.0964 26.0516 16.9879 26.0395Z" fill="#A81F23"/>
<path d="M17.3627 5L13.7106 8.67703C14.6902 8.08043 15.9599 7.72733 17.3627 7.72733V5Z" fill="#A81F23"/>
<path d="M21.0149 8.67703L17.3628 5V7.72733C18.6421 7.71348 19.9022 8.04116 21.0149 8.67703Z" fill="#A81F23"/>
</g>
<defs>
<clipPath id="clip0_1193_102">
<rect width="26" height="24.96" fill="white" transform="translate(4 5)"/>
</clipPath>
</defs>
</svg>
